<!-- icon666.com - MILLIONS OF FREE VECTOR ICONS --><svg viewBox="0 0 512 512" xmlns="http://www.w3.org/2000/svg"><g id="filled_outline" data-name="filled outline"><path d="m352 24h72l24 136h-32l-40-56z" fill="#b22122"></path><path d="m448 384h-376l80-264 104-96h96l24 80-24 72 32 112z" fill="#cb2527"></path><circle cx="440" cy="184" fill="#eae9e4" r="48"></circle><path d="m440 208a24.028 24.028 0 0 1 -24-24 8 8 0 0 1 16 0 8.009 8.009 0 0 0 8 8 8 8 0 0 1 0 16z" fill="#cdccc8"></path><path d="m136 296a8.006 8.006 0 0 1 -7.649-10.355l2.461-8a8 8 0 0 1 15.293 4.706l-2.462 8a8 8 0 0 1 -7.643 5.649z" fill="#b22122"></path><path d="m148.311 256a8.007 8.007 0 0 1 -7.65-10.355l11.693-38a8 8 0 0 1 15.292 4.706l-11.692 38a8 8 0 0 1 -7.643 5.649z" fill="#b22122"></path><path d="m480 424a64 64 0 0 0 -100-52.916 63.965 63.965 0 0 0 -80 6.465 63.934 63.934 0 0 0 -88 0 63.965 63.965 0 0 0 -80-6.465 64 64 0 1 0 0 105.832 63.965 63.965 0 0 0 80-6.465 63.934 63.934 0 0 0 88 0 63.965 63.965 0 0 0 80 6.465 64 64 0 0 0 100-52.916z" fill="#eae9e4"></path><path d="m440 240a56 56 0 0 0 10.658-110.97l-18.78-106.421a8 8 0 0 0 -7.878-6.609h-168a8 8 0 0 0 -5.426 2.122l-104 96a7.983 7.983 0 0 0 -2.23 3.558l-72.244 238.42a72 72 0 1 0 59.9 130.261 71.99 71.99 0 0 0 80-5.384 71.946 71.946 0 0 0 88 0 71.99 71.99 0 0 0 80 5.384 72.009 72.009 0 1 0 58.715-130.687c-.045-.072-.083-.147-.13-.218l-47.235-70.856-30.978-108.42 18.25-54.748 18.778 26.285a55.956 55.956 0 0 0 42.6 92.283zm40-56a40 40 0 1 1 -40-40 40.045 40.045 0 0 1 40 40zm-36.028 191.474a56.006 56.006 0 1 1 -59.466 94.832 8 8 0 0 0 -9.012 0 55.967 55.967 0 0 1 -69.991-5.661 8 8 0 0 0 -11.006 0 55.936 55.936 0 0 1 -76.994 0 8 8 0 0 0 -11.006 0 55.967 55.967 0 0 1 -69.991 5.661 8 8 0 0 0 -9.012 0 56 56 0 1 1 0-92.612 8 8 0 0 0 9.012 0 55.967 55.967 0 0 1 69.991 5.661 8 8 0 0 0 11.006 0 55.936 55.936 0 0 1 76.994 0 8 8 0 0 0 11.006 0 55.967 55.967 0 0 1 69.991-5.661 8 8 0 0 0 9.012 0 56.041 56.041 0 0 1 59.466-2.22zm-99.562-202a8 8 0 0 0 -.1 4.728l32 112a8.008 8.008 0 0 0 1.036 2.24l39.719 59.58c-.354-.006-.708-.018-1.063-.018a71.621 71.621 0 0 0 -36 9.639 71.883 71.883 0 0 0 -80 5.384 71.946 71.946 0 0 0 -88 0 71.99 71.99 0 0 0 -80-5.384 71.621 71.621 0 0 0 -36.002-9.643c-2.031 0-4.037.105-6.026.271l69.051-227.871 100.103-92.4h86.92l21.561 71.871zm38.871-73.04-20.529-68.434h54.536l16.993 96.29a55.616 55.616 0 0 0 -24.814 8.8z"></path><path d="m440 208a8 8 0 0 0 0-16 8.009 8.009 0 0 1 -8-8 8 8 0 0 0 -16 0 24.028 24.028 0 0 0 24 24z"></path><path d="m140.814 272.354a8 8 0 0 0 -10 5.293l-2.461 8a8 8 0 1 0 15.292 4.706l2.462-8a8 8 0 0 0 -5.293-9.999z"></path><path d="m162.353 202.354a8 8 0 0 0 -10 5.293l-11.693 38a8 8 0 1 0 15.293 4.706l11.692-38a8 8 0 0 0 -5.292-9.999z"></path></g></svg>