<!-- icon666.com - MILLIONS OF FREE VECTOR ICONS --><svg version="1.1" id="Capa_1" xmlns="http://www.w3.org/2000/svg" xmlns:xlink="http://www.w3.org/1999/xlink" x="0px" y="0px" viewBox="0 0 457.293 457.293" style="enable-background:new 0 0 457.293 457.293;" xml:space="preserve"><g><polygon points="326.984,221.555 434.594,276.386 457.293,231.835 394.232,199.705 432.006,187.432 416.555,139.878 378.783,152.151 410.914,89.089 366.363,66.391 311.533,174.001 253.646,192.811 253.646,131.945 339.047,46.545 303.691,11.19 253.646,61.234 253.646,21.519 203.646,21.519 203.646,61.234 153.601,11.19 118.246,46.545 203.646,131.945 203.646,192.811 145.761,174.001 90.931,66.392 46.38,89.09 78.511,152.15 40.738,139.877 25.287,187.431 63.06,199.705 0,231.835 22.699,276.386 130.31,221.555 188.195,240.362 152.419,289.604 33.132,308.497 40.955,357.88 110.857,346.811 87.513,378.94 127.964,408.33 151.308,376.199 162.38,446.103 211.765,438.28 192.871,318.993 228.646,269.753 264.421,318.993 245.529,438.279 294.914,446.102 305.984,376.199 329.33,408.33 369.781,378.94 346.436,346.811 416.34,357.882 424.162,308.497 304.873,289.604 269.098,240.362 " fill="#000000" style="fill: rgb(163, 253, 252);"></polygon></g></svg>